<svg width="33" height="33" viewBox="0 0 28 28" fill="none" xmlns="http://www.w3.org/2000/svg">
<path d="M9.7789 0.954956H4.80031C2.22825 0.954956 0.954956 2.22825 0.954956 4.80031V9.79163C0.954956 12.4146 2.22825 13.6879 4.80031 13.6243H9.79163C12.4146 13.6879 13.6879 12.4146 13.6243 9.7789V4.80031C13.6879 2.22825 12.4146 0.954956 9.7789 0.954956ZM9.88076 10.8357C9.01492 10.8357 8.17455 10.5047 7.47423 9.91896C6.68479 10.4919 5.72982 10.8357 4.69845 10.8357C4.1764 10.8357 3.74348 10.4028 3.74348 9.88076C3.74348 9.35871 4.1764 8.92579 4.69845 8.92579C5.99721 8.92579 7.07951 8.03448 7.47423 6.81212H4.69845C4.1764 6.81212 3.74348 6.3792 3.74348 5.85715C3.74348 5.3351 4.1764 4.90217 4.69845 4.90217H6.341C6.39193 4.41832 6.78665 4.03633 7.28324 4.03633C7.77982 4.03633 8.17455 4.41832 8.22548 4.90217H8.55654H8.582H8.60747H9.86803C10.3901 4.90217 10.823 5.3351 10.823 5.85715C10.823 6.3792 10.4028 6.81212 9.86803 6.81212H9.44784C9.33325 7.4233 9.09132 7.99628 8.773 8.51834C9.11679 8.773 9.48604 8.92579 9.88076 8.92579C10.4028 8.92579 10.8357 9.35871 10.8357 9.88076C10.8357 10.4028 10.4028 10.8357 9.88076 10.8357Z" fill="#C8D6E5"/>
<path d="M9.86805 27.3759C4.43107 27.3759 0 22.9448 0 17.5078C0 16.9858 0.432921 16.5529 0.954972 16.5529C1.47702 16.5529 1.90994 16.9858 1.90994 17.5078C1.90994 21.2768 4.53293 24.4346 8.05997 25.2622L7.71618 24.6892C7.44878 24.2308 7.58885 23.6451 8.04723 23.3777C8.49289 23.1103 9.09134 23.2504 9.35873 23.7088L10.6957 25.9371C10.874 26.2299 10.874 26.5992 10.7084 26.892C10.5302 27.1849 10.2118 27.3759 9.86805 27.3759Z" fill="#C8D6E5"/>
<path d="M26.419 10.823C25.8969 10.823 25.464 10.3901 25.464 9.86805C25.464 6.09909 22.841 2.94131 19.314 2.11367L19.6578 2.68666C19.9251 3.14504 19.7851 3.73076 19.3267 3.99815C18.881 4.26554 18.2826 4.12548 18.0152 3.66709L16.6782 1.43883C16.5 1.14597 16.5 0.776711 16.6655 0.483853C16.8438 0.190994 17.1621 0 17.5059 0C22.9429 0 27.3739 4.43107 27.3739 9.86805C27.3739 10.3901 26.941 10.823 26.419 10.823Z" fill="#C8D6E5"/>
<path d="M19.9523 13.499C16.3871 13.499 13.4839 16.3894 13.4839 19.9674C13.4839 23.5326 16.3743 26.4357 19.9523 26.4357C23.5175 26.4357 26.4206 23.5453 26.4206 19.9674C26.4206 16.3894 23.5303 13.499 19.9523 13.499ZM23.1101 23.036C22.6389 23.2652 22.066 23.0869 21.824 22.6031L21.6076 22.1702H18.3097L18.0933 22.6031C17.9278 22.9342 17.584 23.1251 17.2402 23.1251C17.1001 23.1251 16.9473 23.0869 16.82 23.0233C16.3489 22.7814 16.1579 22.2084 16.3871 21.7373L19.1119 16.3003C19.2774 15.982 19.6085 15.7782 19.965 15.7782C20.3215 15.7782 20.6526 15.982 20.8181 16.313L23.543 21.75C23.7722 22.2211 23.5812 22.7941 23.1101 23.036Z" fill="#C8D6E5"/>
<path d="M19.2635 20.2586H20.6514L19.9511 18.8707L19.2635 20.2586Z" fill="#C8D6E5"/>
</svg>
