<?xml version="1.0" standalone="no"?>
<svg xmlns="http://www.w3.org/2000/svg" viewBox="0 0 173.784 30.388" width="173.784" height="30.388"><g fill="#3e1515" color="#3e1515" transform="translate(0, 0) scale(0.29)"><svg width="100.0" height="100.0" x="0.0" y="0.0" viewBox="0 0 100 100"><g><g><g><path d="M18.166,5.745l29.79,20.385v69.58c-10.468-15.047-29.79-21.16-29.79-21.16V5.745z"></path><path d="M21.335,91.309c0,0-8.674-4.383-20.286-2.572V20.375h2.84v64.935C3.889,85.311,16.393,85.156,21.335,91.309z"></path><path d="M33.061,89.082L33.061,89.082c-4.537-6.451-18.816-11.469-18.816-11.469V13.452l-5.932-2.32v69.835     c0,0,6.098,0.752,9.144,1.611C27.976,85.551,33.061,89.082,33.061,89.082z"></path></g></g><g><g><path d="M81.668,5.745l-29.79,20.385v69.58c10.468-15.047,29.79-21.16,29.79-21.16V5.745z"></path><path d="M78.499,91.309c0,0,8.675-4.383,20.286-2.572V20.375h-2.84v64.935C95.945,85.311,83.441,85.156,78.499,91.309z"></path><path d="M66.773,89.082L66.773,89.082c4.537-6.451,18.816-11.469,18.816-11.469V13.452l5.932-2.32v69.835     c0,0-6.098,0.752-9.144,1.611C71.857,85.551,66.773,89.082,66.773,89.082z"></path></g></g></g></svg></g><line x1="41" y1="1" x2="41" y2="28" stroke="#3e1515" stroke-linecap="round"></line><path fill="#3e1515" fill-rule="nonzero" d="M6.24 17.42L0 17.42L0 16.32L2.21 15.79L2.21 2.26L0 1.73L0 0.62L6.24 0.62Q10.66 0.62 13.19 2.74Q15.72 4.85 15.72 9.02L15.72 9.02Q15.72 12.79 13.10 15.11Q10.49 17.42 6.24 17.42L6.24 17.42ZM5.16 2.23L5.16 15.82L6.12 15.82Q9.31 15.82 11.00 14.21Q12.70 12.60 12.70 9.02L12.70 9.02Q12.70 5.71 10.96 3.97Q9.22 2.23 6.12 2.23L6.12 2.23L5.16 2.23ZM23.09 1.78L23.09 1.78Q23.09 2.52 22.57 3.04Q22.06 3.55 21.31 3.55L21.31 3.55Q20.57 3.55 20.05 3.04Q19.54 2.52 19.54 1.78L19.54 1.78Q19.54 1.03 20.05 0.52Q20.57 0 21.31 0L21.31 0Q22.06 0 22.57 0.50Q23.09 1.01 23.09 1.78ZM24.72 17.42L17.78 17.42L17.78 16.39L19.82 15.91L19.82 7.37L17.78 7.37L17.78 6.34L21.62 5.42L22.68 5.42L22.68 15.91L24.72 16.39L24.72 17.42ZM26.14 11.47L26.14 11.47Q26.14 8.62 27.88 6.84Q29.62 5.06 32.09 5.06L32.09 5.06Q34.22 5.06 35.93 6.07L35.93 6.07Q35.90 6.89 35.45 7.57Q34.99 8.26 34.42 8.57L34.42 8.57L32.11 6.38L31.97 6.38Q30.74 6.60 29.90 7.93Q29.06 9.26 29.06 11.42L29.06 11.42Q29.06 13.90 30.20 15.05Q31.34 16.20 33.22 16.20L33.22 16.20Q34.68 16.20 35.90 15.53L35.90 15.53L36.31 16.70Q34.30 17.78 32.21 17.78L32.21 17.78Q29.62 17.78 27.88 16.12Q26.14 14.45 26.14 11.47ZM38.98 6.86L37.70 6.86L37.70 6.14L41.11 3.24L41.83 3.24L41.83 5.57L45.29 5.42L45.29 6.86L41.83 6.86L41.83 14.21Q41.83 16.34 43.54 16.34L43.54 16.34Q44.26 16.34 45.26 15.91L45.26 15.91L45.67 17.02Q44.18 17.78 42.60 17.78L42.60 17.78Q40.87 17.78 39.92 16.96Q38.98 16.13 38.98 14.09L38.98 14.09L38.98 6.86ZM52.03 1.78L52.03 1.78Q52.03 2.52 51.52 3.04Q51 3.55 50.26 3.55L50.26 3.55Q49.51 3.55 49.00 3.04Q48.48 2.52 48.48 1.78L48.48 1.78Q48.48 1.03 49.00 0.52Q49.51 0 50.26 0L50.26 0Q51 0 51.52 0.50Q52.03 1.01 52.03 1.78ZM53.66 17.42L46.73 17.42L46.73 16.39L48.77 15.91L48.77 7.37L46.73 7.37L46.73 6.34L50.57 5.42L51.62 5.42L51.62 15.91L53.66 16.39L53.66 17.42ZM61.18 5.06L61.18 5.06Q63.82 5.06 65.54 6.85Q67.27 8.64 67.27 11.40L67.27 11.40Q67.27 14.18 65.54 15.98Q63.82 17.78 61.18 17.78L61.18 17.78Q58.54 17.78 56.80 15.98Q55.06 14.18 55.06 11.40L55.06 11.40Q55.06 8.64 56.80 6.85Q58.54 5.06 61.18 5.06ZM61.18 6.38L61.18 6.38Q59.69 6.38 58.88 7.75Q58.08 9.12 58.08 11.40L58.08 11.40Q58.08 13.68 58.88 15.07Q59.69 16.46 61.18 16.46L61.18 16.46Q62.66 16.46 63.47 15.06Q64.27 13.66 64.27 11.40L64.27 11.40Q64.27 9.12 63.47 7.75Q62.66 6.38 61.18 6.38ZM75.62 17.42L69.14 17.42L69.14 16.39L71.18 15.91L71.18 7.37L69.14 7.37L69.14 6.34L72.98 5.42L74.06 5.42L74.06 6.58Q75.89 5.06 77.93 5.06L77.93 5.06Q79.80 5.06 80.88 6.12Q81.96 7.18 81.96 8.83L81.96 8.83L81.96 15.91L84 16.39L84 17.42L77.54 17.42L77.54 16.39L79.10 15.91L79.10 9.26Q79.10 6.82 77.02 6.82L77.02 6.82Q75.60 6.82 74.06 7.92L74.06 7.92L74.06 15.91L75.62 16.39L75.62 17.42ZM85.13 14.45L85.13 14.45Q85.13 10.30 92.50 10.30L92.50 10.30L92.50 9.46Q92.50 7.37 91.91 6.80Q91.32 6.24 90.07 6.24L90.07 6.24L87.26 8.64Q86.69 8.28 86.29 7.62Q85.90 6.96 85.87 6.22L85.87 6.22Q86.88 5.66 88.08 5.36Q89.28 5.06 90.46 5.06L90.46 5.06Q95.38 5.06 95.38 9.19L95.38 9.19L95.38 15.86L97.25 15.86L97.25 16.66Q96.70 17.18 96.02 17.48Q95.35 17.78 94.70 17.78L94.70 17.78Q93.29 17.78 92.62 16.56L92.62 16.56Q91.01 17.78 88.99 17.78L88.99 17.78Q87.41 17.78 86.27 16.94Q85.13 16.10 85.13 14.45ZM88.15 14.35L88.15 14.35Q88.15 15.24 88.74 15.67Q89.33 16.10 90.24 16.10L90.24 16.10Q91.56 16.10 92.50 15.29L92.50 15.29L92.50 11.52Q90.34 11.52 89.24 12.30Q88.15 13.08 88.15 14.35ZM105.82 17.42L98.40 17.42L98.40 16.39L100.44 15.91L100.44 7.37L98.40 7.37L98.40 6.34L102.24 5.42L103.30 5.42L103.30 6.91Q105.24 5.06 107.81 5.06L107.81 5.06Q107.95 5.52 107.95 6.07L107.95 6.07Q107.95 6.96 107.74 7.66L107.74 7.66L104.69 7.39Q103.97 7.73 103.30 8.21L103.30 8.21L103.30 15.91L105.82 16.39L105.82 17.42ZM110.04 6.91L108.41 6.46L108.41 5.42L114.96 5.42L114.96 6.46L113.11 6.82L116.52 14.42L119.40 6.94L117.48 6.46L117.48 5.42L122.78 5.42L122.78 6.46L120.89 6.96L114.10 24.60Q113.02 24.60 112.48 24.29Q111.94 23.98 111.65 23.52L111.65 23.52L115.08 18.07L110.04 6.91Z" transform="translate(51, 5.788)"></path></svg>